<svg width="22" height="12" viewBox="0 0 22 12" fill="none" xmlns="http://www.w3.org/2000/svg">
<path d="M1.46667 6.00003C1.46777 5.02791 1.85443 4.09592 2.54183 3.40853C3.22922 2.72113 4.16121 2.33447 5.13333 2.33337H10.2667V0.866699H5.13333C3.77189 0.866699 2.46621 1.40753 1.50352 2.37022C0.540832 3.3329 0 4.63859 0 6.00003C0 7.36148 0.540832 8.66716 1.50352 9.62985C2.46621 10.5925 3.77189 11.1334 5.13333 11.1334H10.2667V9.6667H5.13333C4.16121 9.6656 3.22922 9.27893 2.54183 8.59154C1.85443 7.90414 1.46777 6.97215 1.46667 6.00003Z" fill="#33303E"/>
<path d="M16.8667 0.866699H11.7334V2.33337H16.8667C17.8392 2.33337 18.7718 2.71967 19.4595 3.40731C20.1471 4.09494 20.5334 5.02757 20.5334 6.00003C20.5334 6.97249 20.1471 7.90512 19.4595 8.59276C18.7718 9.28039 17.8392 9.6667 16.8667 9.6667H11.7334V11.1334H16.8667C18.2282 11.1334 19.5339 10.5925 20.4965 9.62985C21.4592 8.66716 22.0001 7.36148 22.0001 6.00003C22.0001 4.63859 21.4592 3.3329 20.4965 2.37022C19.5339 1.40753 18.2282 0.866699 16.8667 0.866699Z" fill="#33303E"/>
<path d="M5.68311 5.29663H16.3164V6.7633H5.68311V5.29663Z" fill="#33303E"/>
</svg>
