<svg width="86" height="86" viewBox="0 0 86 86" fill="none" xmlns="http://www.w3.org/2000/svg">
<circle cx="43" cy="43" r="43" fill="white"/>
<path d="M28 60C28 60 25 60 25 57C25 54 28 45 43 45C58 45 61 54 61 57C61 60 58 60 58 60H28ZM43 42C45.3869 42 47.6761 41.0518 49.364 39.364C51.0518 37.6761 52 35.3869 52 33C52 30.6131 51.0518 28.3239 49.364 26.636C47.6761 24.9482 45.3869 24 43 24C40.6131 24 38.3239 24.9482 36.636 26.636C34.9482 28.3239 34 30.6131 34 33C34 35.3869 34.9482 37.6761 36.636 39.364C38.3239 41.0518 40.6131 42 43 42Z" fill="#C18166"/>
</svg>
