<svg width="15" height="20" viewBox="0 0 15 20" fill="none" xmlns="http://www.w3.org/2000/svg">
<path d="M0.573599 -2.4277C0.206324 -2.06115 0 -1.56406 0 -1.04575C0 -0.527443 0.206324 -0.0303552 0.573599 0.336199L10.2711 10.0118L0.573599 19.6874C0.216732 20.0561 0.0192653 20.5498 0.0237289 21.0623C0.0281926 21.5748 0.23423 22.0651 0.597463 22.4275C0.960696 22.7899 1.45206 22.9955 1.96573 22.9999C2.4794 23.0044 2.97428 22.8074 3.34377 22.4513L14.4264 11.3937C14.7937 11.0272 15 10.5301 15 10.0118C15 9.49349 14.7937 8.99641 14.4264 8.62985L3.34377 -2.4277C2.97638 -2.79414 2.47817 -3 1.95868 -3C1.4392 -3 0.940984 -2.79414 0.573599 -2.4277Z" fill="white"/>
</svg>
