<svg width="61" height="60" viewBox="0 0 61 60" fill="none" xmlns="http://www.w3.org/2000/svg">
<circle cx="30.5" cy="30" r="30" fill="#E09590"/>
<path d="M38.9936 21.0065C39.4221 20.5985 39.9925 20.3729 40.5842 20.3774C41.1759 20.3818 41.7428 20.616 42.1652 21.0305C42.5875 21.4449 42.8323 22.0073 42.848 22.5988C42.8636 23.1904 42.6489 23.7648 42.249 24.2011L30.1096 39.3829C29.9009 39.6077 29.6489 39.7882 29.3689 39.9134C29.0888 40.0386 28.7863 40.1061 28.4796 40.1118C28.1729 40.1175 27.8681 40.0612 27.5836 39.9465C27.2991 39.8317 27.0407 39.6607 26.8238 39.4437L18.7734 31.3934C18.5492 31.1845 18.3694 30.9326 18.2447 30.6527C18.12 30.3728 18.0529 30.0706 18.0475 29.7642C18.0421 29.4579 18.0985 29.1535 18.2132 28.8694C18.328 28.5853 18.4988 28.3272 18.7155 28.1105C18.9322 27.8938 19.1903 27.723 19.4744 27.6082C19.7585 27.4935 20.0629 27.4371 20.3693 27.4425C20.6756 27.4479 20.9778 27.515 21.2577 27.6397C21.5376 27.7644 21.7895 27.9442 21.9984 28.1684L28.3693 34.5363L38.9358 21.0734C38.9548 21.05 38.9721 21.0276 38.9936 21.0065Z" fill="white"/>
</svg>
