<svg width="235" height="258" viewBox="0 0 235 258" fill="none" xmlns="http://www.w3.org/2000/svg">
<path d="M24.6293 132.746C24.9446 131.974 25.2359 131.189 25.642 130.453C26.0703 129.65 26.6048 128.939 27.1822 128.237C28.1706 127.039 29.3886 125.939 30.7469 125.204C32.5592 124.204 34.5581 123.516 36.5741 122.964C37.4596 122.721 38.3503 122.498 39.2273 122.298C42.348 121.565 45.4722 120.992 48.6801 120.799C50.1514 120.699 51.6227 120.598 53.0871 120.621C54.5463 120.624 56.0073 120.708 57.4442 120.779C60.6744 120.963 63.8892 121.313 67.0885 121.828C70.1028 122.334 73.0657 123.095 76.0149 123.881C79.0549 124.702 82.1085 125.499 85.1571 126.277C88.2296 127.069 91.3192 127.776 94.4054 128.544C97.4009 129.277 100.348 130.204 103.291 131.112C106.305 132.061 109.237 133.154 112.152 134.332C113.791 134.992 115.38 135.766 116.983 136.517C118.285 137.129 119.581 137.721 120.864 138.338C125.842 140.766 130.697 143.408 135.566 146.027C134.814 145.205 134.049 144.406 133.33 143.555C131.494 141.436 129.65 139.36 127.814 137.242C126.896 136.182 125.946 135.152 125.014 134.117C124.078 133.063 123.16 132.003 122.228 130.968C120.278 128.8 118.338 126.67 116.439 124.468C114.535 122.247 112.728 119.939 110.843 117.713C110.333 117.107 109.822 116.501 109.331 115.889C108.833 115.622 108.464 115.239 108.108 114.752C107.586 114.028 107.096 113.275 106.612 112.541C106.144 111.943 105.677 111.345 105.228 110.742C104.975 110.408 104.745 110.088 104.492 109.754C103.243 108.967 101.908 108.304 100.591 107.636C98.1194 106.377 95.6207 105.166 93.0672 104.051C88.6675 102.332 84.0485 101.217 79.4585 100.135C74.6442 98.9727 69.7305 98.2613 64.8219 97.5687C62.1758 97.2245 59.5125 96.9657 56.863 96.6829C53.8383 96.3617 50.8154 95.8988 47.8028 95.4735C48.0786 95.519 48.3491 95.5457 48.6198 95.5725C45.3845 95.1476 42.1355 94.7467 38.9071 94.199C37.2286 93.9125 35.5451 93.6072 33.8889 93.2541C32.3235 92.9366 30.7702 92.5151 29.2322 92.1498C26.3224 91.4342 23.4074 90.6999 20.573 89.7419C19.0077 89.2026 17.4423 88.6634 15.913 88.0336C15.1149 87.7077 14.3305 87.3579 13.5273 87.0132C12.3799 86.5209 11.2136 86.0337 10.1432 85.3791C8.68929 84.5069 7.41007 83.3852 6.14113 82.3011C4.54341 80.9038 2.78468 79.5101 1.91327 77.5107C1.40481 76.3192 0.968279 75.1685 0.74243 73.8996C0.641483 73.3829 0.586781 72.8132 0.58516 72.2894C0.61096 71.7178 0.736086 71.1392 0.871495 70.598C1.01034 69.9955 1.33929 69.4215 1.5929 68.8682C1.67856 68.6633 1.80706 68.4668 1.9167 68.2755C2.51635 67.2847 3.18791 66.3347 4.07696 65.5873C4.71934 65.0485 5.41995 64.5744 6.14452 64.114C7.62622 63.164 9.19355 62.2308 10.8927 61.7052C11.0434 61.6639 11.213 61.6175 11.3637 61.5763C12.7768 61.1894 14.2327 61.0328 15.6902 60.9564C17.2231 60.8593 18.7629 60.8612 20.2838 60.8683C21.0374 60.8837 21.803 61.0169 22.5394 61.1177C23.4848 61.242 24.4166 61.3902 25.3483 61.5384C26.8314 61.7775 28.3198 62.0354 29.7944 62.3172C31.5259 62.6497 33.2437 63.0061 34.9718 63.4C37.909 64.0677 40.8085 64.9676 43.6892 65.8726C46.6555 66.7945 49.632 67.7539 52.5092 68.9421C54.292 69.684 56.0509 70.4122 57.8063 71.2018C59.3271 71.8743 60.8016 72.5997 62.295 73.3199C63.6736 73.991 65.0265 74.79 66.3366 75.5806C67.5457 76.298 68.7685 76.9915 69.9912 77.6851C72.8444 79.3033 75.7026 80.9403 78.5283 82.6063C82.659 85.0442 86.7434 87.5351 90.6719 90.2703C90.5058 90.0335 90.3398 89.7967 90.1737 89.5599C88.5847 87.2327 87.042 84.8525 85.5557 82.4568C84.0507 80.0663 82.6861 77.597 81.265 75.1432C79.8438 72.6894 78.5255 70.1671 77.2637 67.6293C76.6251 66.3323 76.0379 65.0011 75.4558 63.6886C75.2024 63.1329 74.9678 62.5721 74.7196 62.0352C74.6015 61.8256 74.5022 61.6108 74.4354 61.367C74.1564 60.7176 73.9013 60.0817 73.6599 59.422C72.6465 56.7557 71.6519 54.0844 70.6247 51.442C69.6027 48.8185 68.8016 46.1143 67.855 43.4701C67.3859 42.1267 66.9357 40.7781 66.4478 39.4398C65.9394 38.0265 65.3933 36.6235 64.8798 35.1915C63.9674 32.5984 63.1954 29.9265 62.4663 27.2631C61.6396 24.2433 60.8129 21.2235 60.0239 18.1934C59.6491 16.8242 60.4852 15.3654 61.8606 14.9889C63.236 14.6124 64.6796 15.4471 65.0733 16.8111C65.9377 19.8206 66.8209 22.8249 67.7041 25.8292C68.5052 28.5334 69.3114 31.2564 70.282 33.9142C70.7904 35.3275 71.3554 36.7253 71.8963 38.1095C72.3928 39.4051 72.8516 40.711 73.3292 42.0118C74.334 44.7207 75.1933 47.4896 76.2547 50.1831C77.3863 53.0589 78.4477 55.9741 79.6032 58.8635C79.7128 59.1158 79.8172 59.3493 79.9268 59.6016C80.0415 59.8726 80.175 60.1385 80.2897 60.4095C80.5825 61.0351 80.8564 61.6657 81.1355 62.3152C82.3031 64.8787 83.6163 67.3823 84.9809 69.8515C86.3266 72.326 87.7615 74.7559 89.1963 77.1858C89.811 78.2474 90.4582 79.2799 91.1105 80.3312C91.0797 80.2187 91.0541 80.1249 91.0233 80.0124C90.2205 77.0062 89.4367 73.9949 88.7847 70.9474C88.4527 69.3648 88.1259 67.801 87.775 66.2236C87.4054 64.6513 87.0117 63.0655 86.6609 61.4881C85.8874 58.0706 85.4307 54.627 84.9827 51.1406C84.5807 48.0449 84.2919 44.9182 84.1691 41.8065C84.0361 38.6573 83.9408 35.4978 83.9688 32.3448C83.9777 30.7496 83.9625 29.1408 84.0759 27.5572C84.1926 25.9123 84.3762 24.2894 84.5409 22.6717C84.7314 20.9259 84.9886 19.2022 85.3452 17.4715C85.7103 15.698 86.257 13.9959 86.9938 12.3224C87.7169 10.6727 88.7465 9.18115 89.8532 7.7491C90.7252 6.64342 91.6417 5.62636 92.7021 4.69089C94.768 2.91561 97.1935 1.5661 99.8124 0.849148C100.623 0.627359 101.448 0.461837 102.294 0.371342C103.632 0.226926 104.956 0.328217 106.261 0.656462C107.89 1.05739 109.249 1.95536 110.486 3.06856C111.046 3.56045 111.551 4.148 112.032 4.72195C112.868 5.70291 113.791 6.78094 114.318 7.96729C114.696 8.83149 115.061 9.71961 115.345 10.6096C115.598 11.3871 115.744 12.2142 115.884 13.0226C116.211 14.8082 116.406 16.6299 116.596 18.4329C116.767 20.0192 116.795 21.6041 116.706 23.2013C116.615 24.94 116.339 26.6688 116.082 28.3926C115.703 30.8553 115.219 33.3063 114.779 35.7657C114.333 38.2064 113.954 40.6691 113.613 43.1215C112.896 47.9752 112.16 52.834 111.486 57.6961C111.104 60.6639 110.74 63.6264 110.419 66.5975C110.074 69.7767 109.697 72.9849 109.765 76.1923C109.817 79.3434 109.993 82.501 110.183 85.6347C110.353 88.5518 110.325 91.483 110.638 94.4015C111.109 97.3777 111.905 100.285 112.719 103.187C113.531 106.151 114.445 109.046 115.609 111.892C116.371 113.639 117.198 115.329 118.067 117.026C118.117 117.133 118.162 117.222 118.192 117.335C119.641 119.075 121.09 120.816 122.552 122.532C124.398 124.688 126.374 126.728 128.239 128.879C129.181 129.952 130.141 131.02 131.097 132.069C131.975 133.058 132.821 134.077 133.686 135.09C134.662 136.214 135.633 137.319 136.628 138.438C137.575 139.53 138.489 140.65 139.482 141.689C140.698 142.949 141.9 144.233 143.097 145.498C142.421 143.768 141.782 142.027 141.214 140.247C140.307 137.451 139.103 134.756 138.14 131.975C137.621 130.525 137.145 129.082 136.734 127.582C136.313 126.044 135.897 124.524 135.533 122.971C135.024 120.892 134.535 118.808 134.121 116.704C133.702 114.581 133.282 112.457 132.925 110.338C132.559 108.26 132.287 106.157 131.953 104.051C131.58 101.653 131.17 99.2651 130.858 96.8704C130.446 93.7371 130.091 90.5884 129.934 87.4256C129.744 83.8483 129.697 80.2724 129.749 76.6894C129.768 75.1317 129.811 73.5876 129.959 72.0552C130.089 70.3863 130.386 68.7325 130.64 67.0702C130.899 65.4267 131.139 63.7883 131.459 62.1481C132.107 58.7447 132.894 55.4042 133.909 52.082C134.378 50.5421 134.867 48.997 135.398 47.4604C135.759 46.4138 136.225 45.3789 136.654 44.3544C137.2 43.0958 138.054 41.9953 138.869 40.9051C139.883 39.579 140.98 38.3312 142.23 37.2026C143.611 35.9576 145.108 34.8421 146.629 33.7402C147.725 32.936 148.947 32.4404 150.228 32.0896C151.566 31.7234 152.968 31.5209 154.344 31.3661C155.147 31.2672 155.981 31.2808 156.772 31.286C157.762 31.2771 158.793 31.4182 159.775 31.6738C160.628 31.904 161.414 32.334 162.154 32.817C165.64 35.0481 168.075 38.8374 168.984 42.8226C169.386 44.5876 169.699 46.3971 169.79 48.2071C169.875 49.7766 169.743 51.3652 169.605 52.9351C169.43 54.7372 169.142 56.5701 168.734 58.3351C168.366 59.9482 167.882 61.512 167.514 63.125C167.171 64.6101 166.962 66.1392 166.667 67.6514C166.391 69.1585 165.925 70.637 165.411 72.0882C164.297 75.1957 163.031 78.2642 161.826 81.3361C159.605 86.9845 158.193 92.9964 157.191 98.9563C156.197 104.793 155.417 110.672 154.607 116.519C154.424 118.142 154.24 119.765 154.094 121.378C153.94 123.255 153.729 125.147 153.655 127.022C153.517 130.588 153.653 134.12 154.017 137.669C154.24 139.222 154.495 140.745 154.854 142.279C155.265 144.002 155.775 145.717 156.261 147.419C157.249 150.878 158.274 154.328 159.539 157.691C160.515 159.924 161.58 162.112 162.542 164.369C162.662 164.659 162.679 165.017 162.634 165.372C163.191 165.926 163.728 166.484 164.29 167.056C166.367 169.169 168.504 171.205 170.595 173.294C174.003 176.716 177.169 180.366 180.186 184.137C180.053 183.649 179.919 183.161 179.786 182.674C178.933 179.56 178.076 176.428 177.393 173.268C176.736 170.202 176.385 167.072 175.691 164.016C174.984 160.842 174.226 157.703 173.731 154.491C173.458 152.752 173.283 151.005 173.085 149.245C172.9 147.682 172.758 146.128 172.616 144.574C172.473 142.94 172.48 141.265 172.479 139.632C172.47 138.122 172.467 136.631 172.44 135.126C172.411 133.541 172.401 131.951 172.41 130.356C172.414 128.742 172.517 127.121 172.601 125.505C172.807 122.041 173.027 118.554 173.528 115.13C173.73 113.724 173.933 112.317 174.13 110.892C174.114 111.058 174.08 111.229 174.065 111.394C174.281 109.742 174.502 108.109 174.737 106.452C174.962 104.757 175.186 103.063 175.43 101.363C175.644 99.8525 176.001 98.3435 176.296 96.8313C176.633 95.1057 176.966 93.3613 177.304 91.6358C177.885 88.654 178.932 85.7463 180.109 82.9441C180.479 82.0766 180.978 81.2344 181.415 80.389C181.761 79.7297 182.093 79.0943 182.434 78.4163C183.157 76.9884 183.875 75.5419 184.641 74.1225C185.421 72.6792 186.19 71.1984 187.137 69.8502C187.984 68.6508 188.811 67.4565 189.822 66.4136C190.498 65.7042 191.244 65.0969 192.042 64.5356C192.705 64.0719 193.547 63.821 194.299 63.5345C194.558 63.4436 194.817 63.3526 195.08 63.2804C196.494 62.8936 198.013 62.8204 199.438 62.7731C200.565 62.7468 201.731 62.7904 202.82 62.9963C203.848 63.1989 204.812 63.5398 205.728 64.0753C206.549 64.5564 207.246 65.2527 207.83 65.98C209.027 67.4669 209.876 69.0893 210.549 70.881C211.177 72.5841 211.427 74.3102 211.579 76.1235C211.688 77.2629 211.57 78.3841 211.432 79.5104C211.295 80.6367 211.134 81.7495 210.949 82.8486C210.68 84.4546 210.368 86.0522 210.061 87.6685C209.462 90.7356 208.674 93.7742 207.856 96.7803C207.017 99.8531 206.182 102.945 205.123 105.956C203.961 109.258 202.794 112.542 201.589 115.835C200.529 118.767 199.492 121.712 198.407 124.63C197.758 126.401 197.084 128.158 196.416 129.934C195.909 131.262 195.364 132.601 194.905 133.956C194.024 136.657 193.086 139.374 192.492 142.158C192.168 143.638 191.862 145.112 191.619 146.59C191.401 147.94 191.202 149.285 191.027 150.643C190.501 154.86 190.06 159.094 189.742 163.335C189.546 165.949 189.407 168.547 189.292 171.16C189.053 176.649 188.99 182.19 189.655 187.654C190.139 190.828 191.035 193.95 191.863 197.05C192.038 197.687 191.976 198.349 191.727 198.922C192.287 199.635 192.828 200.354 193.369 201.073C195.251 203.582 197.133 206.091 199.015 208.6C200.789 210.937 202.404 213.358 203.991 215.827C205.597 218.291 207.157 220.808 208.552 223.389C208.794 223.827 209.021 224.289 209.263 224.727C208.905 222.829 208.505 220.922 208.067 219.026C207.379 216.069 206.922 213.069 206.366 210.076C206.107 208.614 205.811 207.163 205.515 205.712C205.214 204.242 204.951 202.762 204.588 201.288C204.254 199.847 203.92 198.406 203.619 196.936C203.32 195.325 203.096 193.692 202.891 192.055C202.86 191.721 202.81 191.391 202.761 191.062C202.451 188.969 202.141 186.877 201.888 184.768C201.455 181.782 201.16 178.778 200.926 175.778C200.692 172.777 200.391 169.754 200.436 166.738C200.465 163.665 200.576 160.591 200.691 157.535C200.732 156.132 200.774 154.73 200.882 153.349C201.029 151.595 201.252 149.82 201.505 148.078C201.952 145.052 202.571 142.06 203.409 139.129C203.81 137.708 204.254 136.296 204.807 134.915C205.159 134.053 205.505 133.172 205.861 132.328C206.146 131.665 206.502 131.044 206.853 130.403C207.556 129.122 208.311 127.887 209.115 126.679C209.5 126.09 209.915 125.533 210.348 124.97C210.975 124.153 211.702 123.551 212.517 122.905C213.319 122.282 214.129 121.838 215.093 121.514C215.169 121.493 215.244 121.473 215.338 121.447C215.715 121.344 216.102 121.278 216.475 121.236C218.279 120.944 220.026 120.889 221.842 120.937C223.107 120.973 224.349 121.218 225.551 121.615C226.086 121.791 226.611 122.01 227.137 122.229C228.117 122.626 228.975 123.319 229.706 124.066C231.062 125.469 231.839 127.273 232.456 129.08C232.942 130.56 233.272 132.062 233.626 133.578C234.362 136.784 234.295 140.089 234.131 143.34C234.057 144.993 234.008 146.66 233.749 148.303C233.527 149.715 233.292 151.15 232.991 152.563C232.329 155.769 231.643 158.961 230.768 162.124C229.94 165.093 228.983 168.036 228.046 170.974C227.064 174.046 226.058 177.103 225.1 180.188C224.137 183.254 223.307 186.365 222.259 189.414C221.273 192.325 220.264 195.222 219.412 198.178C219.129 199.142 218.809 200.117 218.593 201.104C218.341 202.181 218.046 203.249 217.856 204.33C217.501 206.362 217.189 208.404 216.882 210.463C216.57 212.948 216.276 215.428 216.05 217.929C215.992 218.53 215.919 219.155 215.899 219.745C215.888 220.595 215.859 221.45 215.849 222.299C215.823 223.536 215.891 224.747 215.946 225.982C216.048 228.576 216.131 231.174 216.352 233.755C216.465 235.055 216.54 236.365 216.69 237.654C216.854 238.92 217.013 240.167 217.178 241.432C217.441 243.134 217.723 244.831 218.1 246.502C218.22 247.014 218.345 247.544 218.488 248.07C218.689 248.358 218.908 248.64 219.089 248.933C219.505 249.565 219.555 250.338 219.342 251.042C219.389 251.21 219.44 251.398 219.486 251.567C219.635 252.111 219.623 252.658 219.458 253.167C219.587 253.636 219.715 254.105 219.838 254.555C220.213 255.924 219.377 257.383 218.002 257.76C216.626 258.136 215.164 257.307 214.789 255.937C214.496 254.868 214.204 253.799 213.892 252.735C213.637 251.878 213.377 251.001 213.141 250.138C213.072 250.036 212.985 249.939 212.916 249.837C212.105 248.87 211.115 247.991 210.159 247.164C208.373 245.818 206.478 244.664 204.522 243.586C203.568 243.061 202.628 242.512 201.641 242.016C200.607 241.493 199.569 241.031 198.512 240.574C197.122 240.007 195.728 239.502 194.32 239.02C192.717 238.491 191.083 238.071 189.416 237.681C187.646 237.278 185.88 236.895 184.092 236.578C182.579 236.306 181.026 236.107 179.491 235.902C178.613 235.799 177.734 235.697 176.869 235.571C171.596 234.877 166.362 234.032 161.102 233.315C159.972 233.18 158.836 233.028 157.682 232.88C157.786 232.892 157.891 232.903 157.995 232.915C156.737 232.756 155.473 232.577 154.233 232.413C152.403 232.168 150.579 231.941 148.75 231.696C145.9 231.347 143.028 231.065 140.19 230.612C137.395 230.167 134.597 229.784 131.868 229.14C129.054 228.478 126.249 227.553 123.541 226.54C122.07 225.975 120.608 225.367 119.304 224.454C118.602 223.96 117.923 223.401 117.28 222.83C116.981 222.55 116.681 222.269 116.395 221.964C115.585 221.077 115.056 220.032 114.691 218.922C114.265 217.587 114.368 216.188 114.666 214.836C114.831 214.105 115.181 213.385 115.503 212.712C115.869 211.906 116.479 211.174 117.13 210.593C117.958 209.842 118.931 209.253 119.984 208.884C120.21 208.822 120.45 208.736 120.676 208.674C121.166 208.54 121.666 208.444 122.171 208.366C125.179 207.885 128.212 207.942 131.244 207.919C132.698 207.904 134.171 207.883 135.63 207.887C137.07 207.896 138.501 208.089 139.925 208.264C143.084 208.629 146.245 209.155 149.374 209.71C152.332 210.23 155.268 210.818 158.227 211.419C161.144 212.012 163.997 212.965 166.826 213.904C172.461 215.769 178.073 217.7 183.578 219.903C186.354 221.018 189.2 222.094 191.827 223.552C194.382 224.97 196.869 226.507 199.323 228.073C200.524 228.833 201.691 229.623 202.846 230.436C203.851 231.148 204.875 231.856 205.779 232.717C206.307 233.238 206.839 233.778 207.353 234.323C207.779 234.771 208.211 235.237 208.642 235.704C208.632 235.666 208.622 235.629 208.612 235.591C207.473 233.06 206.348 230.505 204.994 228.073C203.551 225.464 202.061 222.908 200.463 220.402C198.866 217.896 197.268 215.389 195.484 213.015C193.729 210.672 191.941 208.359 190.173 206.041C188.895 204.334 187.585 202.656 186.275 200.979C185.842 200.432 185.409 199.885 184.971 199.32C183.534 198.362 182.088 197.447 180.643 196.532C179.608 196.231 178.565 195.972 177.517 195.694C175.592 195.173 173.672 194.67 171.711 194.239C167.747 193.369 163.727 192.816 159.702 192.245C157.123 191.922 154.518 191.728 151.914 191.614C150.52 191.552 149.107 191.496 147.708 191.415C146.37 191.338 145.009 191.247 143.668 191.231C140.806 191.208 137.947 191.345 135.09 191.341C132.233 191.337 129.387 191.37 126.542 191.705C125.932 191.771 125.327 191.856 124.723 191.941C124.723 191.941 124.723 191.941 124.704 191.946C124.666 191.956 124.629 191.967 124.572 191.982C124.61 191.972 124.647 191.962 124.685 191.951C124.629 191.967 124.572 191.982 124.492 191.984C122.81 192.203 121.147 192.416 119.465 192.634C119.559 192.609 119.658 192.602 119.757 192.595C119.626 192.631 119.465 192.634 119.328 192.652C119.233 192.678 119.134 192.685 119.054 192.686C119.11 192.671 119.148 192.661 119.209 192.664C118.194 192.801 117.178 192.938 116.143 193.08C113.139 193.499 110.142 194.017 107.127 194.399C104.293 194.772 101.455 194.984 98.6081 195.239C95.8419 195.492 93.0364 195.676 90.255 195.651C87.3741 195.633 84.5104 195.53 81.6416 195.408C80.2475 195.346 78.831 195.351 77.4369 195.289C75.7584 195.224 74.0919 195.055 72.4238 194.806C69.5721 194.377 66.772 193.47 64.0746 192.495C61.9835 191.737 59.8444 190.951 58.0583 189.605C57.4178 189.115 56.7585 188.631 56.1917 188.04C55.5769 187.422 55.041 186.722 54.5239 186.016C53.6112 184.754 52.9024 183.275 52.567 181.753C52.1477 179.852 52.6122 177.85 53.6916 176.244C53.976 175.803 54.3032 175.371 54.6407 174.976C55.3019 174.21 56.1036 173.587 56.9789 173.086C57.7137 172.663 58.5171 172.342 59.3016 172.026C59.9782 171.761 60.6736 171.49 61.3604 171.261C62.6964 170.815 64.0239 170.411 65.3805 170.04C65.4747 170.014 65.5689 169.988 65.6442 169.967C68.2255 169.261 70.8974 168.812 73.5471 168.429C76.6884 167.992 79.8399 167.593 83.0102 167.411C85.9441 167.253 88.9192 167.245 91.8462 167.432C98.0463 167.811 104.217 168.602 110.378 169.133C113.43 169.406 116.487 169.699 119.501 170.204C122.687 170.743 125.823 171.397 128.978 172.046C131.899 172.657 134.83 173.226 137.752 173.837C140.588 174.432 143.427 175.187 146.207 176.019C149.163 176.903 152.152 177.758 155.082 178.771C158.127 179.832 161.153 180.899 164.19 182.004C165.025 182.319 165.858 182.696 166.68 183.036C167.683 183.446 168.701 183.833 169.696 184.287C171.509 185.141 173.332 185.953 175.109 186.898C173.544 185.028 171.946 183.187 170.311 181.356C168.366 179.207 166.328 177.164 164.234 175.136C160.011 171.03 155.899 166.813 151.728 162.672C151.031 161.976 150.339 161.298 149.642 160.602C148.748 160.222 147.849 159.823 146.955 159.442C142.269 157.64 137.321 156.434 132.355 155.677C129.695 155.357 127.004 155.146 124.322 154.892C123.012 154.767 121.685 154.727 120.385 154.639C118.942 154.55 117.511 154.498 116.06 154.452C113.121 154.369 110.199 154.423 107.246 154.587C104.393 154.743 101.539 154.899 98.6806 155.036C95.7227 155.181 92.7733 155.282 89.7966 155.432C86.8387 155.576 83.891 155.758 80.9314 155.822C79.4635 155.861 77.9803 155.844 76.5125 155.883C75.007 155.932 73.4912 155.944 71.9943 155.95C69.0997 155.956 66.2309 155.835 63.3416 155.638C60.4522 155.441 57.532 155.353 54.6598 155.071C52.9745 154.907 51.2909 154.602 49.6073 154.296C48.3708 154.07 47.1291 153.826 45.9268 153.429C45.1065 153.17 44.281 152.892 43.4743 152.608C42.0905 152.14 40.7341 151.625 39.3452 151.138C37.7696 150.561 36.1888 149.965 34.6766 149.25C33.3271 148.612 32.0324 147.877 30.8114 147.042C29.4705 146.139 28.1416 145.132 27.0782 143.911C25.9275 142.593 25.0937 141.027 24.6076 139.325C24.3508 138.387 24.1643 137.41 24.0772 136.426C23.9695 135.145 24.2369 133.902 24.7047 132.725L24.6293 132.746ZM84.2418 92.8975C78.9929 89.556 73.6018 86.435 68.1507 83.3908C65.7343 82.0361 63.3453 80.6335 60.9151 79.3028C58.3994 77.9551 55.8305 76.7833 53.229 75.6405C50.8108 74.6492 48.3789 73.6819 45.9076 72.8664C43.1931 71.9764 40.4374 71.1581 37.6869 70.3586C32.6243 68.8815 27.4263 67.9456 22.218 67.1939C20.9832 67.048 19.7688 66.9772 18.5185 66.9969C17.2117 67.0321 15.8912 67.0911 14.586 67.2065C13.8119 67.3378 13.0531 67.5253 12.2909 67.7743C10.9634 68.3998 9.6821 69.1942 8.49159 70.0241C8.25863 70.2089 8.04963 70.4072 7.86462 70.6192C7.54767 71.089 7.27354 71.5673 7.02339 72.0592C6.99255 72.1684 6.96169 72.2777 6.93084 72.387C6.93254 72.4671 6.9291 72.5286 6.9308 72.6088C7.05742 73.2193 7.25943 73.8092 7.46655 74.4178C7.62064 74.7587 7.78842 75.0757 7.98018 75.4063C8.74563 76.2048 9.58987 76.9213 10.3964 77.6482C10.9855 78.1724 11.5695 78.6779 12.1483 79.1646C13.0097 79.7958 13.8882 80.3416 14.8695 80.8189C15.8509 81.2963 16.8544 81.7071 17.8443 82.1418C20.5109 83.2264 23.2545 84.1487 26.0427 84.9379C29.1169 85.8101 32.2305 86.5304 35.3304 87.2746C38.3019 87.9934 41.3711 88.4033 44.4077 88.8422C47.5916 89.3013 50.7892 89.7364 53.9679 90.1767C54.5811 90.271 55.1942 90.3653 55.8211 90.4356C59.0598 90.799 62.3071 91.1198 65.5424 91.5446C68.6544 91.9629 71.7492 92.4665 74.8491 92.9889C77.7778 93.4775 80.6877 94.1931 83.5649 94.9378C85.6372 95.4794 87.7284 96.0158 89.7836 96.6427C87.97 95.3448 86.1427 94.0708 84.2555 92.8736L84.2418 92.8975ZM104.569 63.723C105.192 58.0079 106.023 52.3163 106.794 46.6214C106.747 46.8962 106.715 47.147 106.687 47.4167C107.195 43.6485 107.703 39.8803 108.315 36.1239C108.899 32.6371 109.607 29.1568 110.112 25.6719C110.285 24.2333 110.434 22.7811 110.404 21.3378C110.385 19.7904 110.211 18.2655 110.036 16.7406C109.756 14.902 109.443 13.0924 108.804 11.3518C108.542 10.8389 108.266 10.3498 107.934 9.87618C107.205 8.98712 106.448 8.14589 105.575 7.39704C105.407 7.30185 105.239 7.20666 105.071 7.11147C104.737 7.00128 104.408 6.90984 104.071 6.86107C103.615 6.82449 103.175 6.84418 102.721 6.88779C101.938 7.06175 101.19 7.28682 100.433 7.55457C99.4993 7.99158 98.624 8.49331 97.7932 9.08367C97.2673 9.53007 96.7466 9.99522 96.2738 10.4876C95.7684 11.009 95.3161 11.5764 94.8878 12.1574C94.1289 13.2321 93.4659 14.3612 92.9227 15.5584C92.2218 17.585 91.7727 19.6435 91.4623 21.7648C91.1364 24.2735 90.8636 26.8281 90.8083 29.3635C90.7392 32.3664 90.7507 35.3674 90.7998 38.3582C90.8472 41.0469 90.9512 43.7201 91.1785 46.4C91.411 49.0985 91.7187 51.7765 92.0505 54.468C92.266 55.9212 92.4816 57.3743 92.7913 58.8017C93.1592 60.5156 93.5648 62.2191 93.9516 63.9278C94.6601 66.9598 95.1802 70.0434 95.9127 73.089C97.3691 79.2228 99.0516 85.2947 101.383 91.1486C101.498 91.4196 101.618 91.7094 101.733 91.9805C102.823 94.4844 104.157 96.8412 105.561 99.1585C104.892 96.4182 104.51 93.6193 104.403 90.7857C104.275 87.4334 104.053 84.107 103.869 80.7702C103.705 77.9521 103.669 75.1592 103.809 72.3387C103.956 69.4756 104.308 66.6171 104.622 63.7689L104.569 63.723ZM211.853 202.525C212.001 201.658 212.234 200.808 212.424 199.95C212.575 199.243 212.774 198.563 212.967 197.865C213.821 194.769 214.784 191.702 215.795 188.663C216.792 185.648 217.632 182.575 218.558 179.52C219.452 176.573 220.39 173.635 221.308 170.702C221.925 168.738 222.542 166.775 223.135 164.798C223.773 162.688 224.448 160.568 224.952 158.414C225.838 154.622 226.639 150.814 227.249 146.978C227.508 143.56 227.672 140.088 227.381 136.659C226.988 134.408 226.481 132.187 225.692 130.044C225.469 129.601 225.233 129.182 224.959 128.773C224.843 128.644 224.707 128.52 224.591 128.39C224.351 128.254 224.111 128.118 223.853 127.987C223.337 127.806 222.808 127.648 222.284 127.51C220.893 127.386 219.458 127.396 218.077 127.532C217.653 127.608 217.228 127.684 216.813 127.797C216.603 127.916 216.397 128.052 216.21 128.184C215.852 128.504 215.518 128.837 215.213 129.203C213.756 131.276 212.357 133.493 211.336 135.829C210.891 136.939 210.445 138.049 210.096 139.213C209.657 140.644 209.223 142.093 208.875 143.56C208.212 146.241 207.71 148.919 207.322 151.647C207.025 154.188 206.908 156.72 206.815 159.265C206.707 161.977 206.58 164.693 206.495 167.418C206.425 170.119 206.729 172.858 206.924 175.567C207.105 178.3 207.353 181.055 207.695 183.784C207.66 183.511 207.631 183.257 207.578 182.989C207.729 184.057 207.866 185.148 207.997 186.221C208.345 188.747 208.611 191.275 208.94 193.806C209.145 195.222 209.388 196.627 209.687 198.017C210.002 199.463 210.331 200.885 210.608 202.342C210.844 203.648 211.094 204.931 211.311 206.242C211.498 205.002 211.685 203.761 211.891 202.515L211.853 202.525ZM199.553 234.684C198.928 234.25 198.279 233.803 197.64 233.393C196.176 232.483 194.717 231.592 193.239 230.707C192.025 229.97 190.792 229.239 189.536 228.575C188.846 228.199 188.161 227.842 187.476 227.486C186.935 227.21 186.366 226.983 185.817 226.75C185.865 226.778 185.907 226.786 185.955 226.813C183.131 225.671 180.317 224.566 177.471 223.49C174.811 222.505 172.135 221.604 169.439 220.709C166.452 219.712 163.484 218.71 160.466 217.823C157.839 217.03 155.104 216.508 152.393 216C148.169 215.221 143.951 214.46 139.693 213.852C138.373 213.689 137.063 213.564 135.725 213.487C134.326 213.406 132.892 213.496 131.476 213.501C128.852 213.533 126.245 213.481 123.645 213.749C123.003 213.844 122.371 213.977 121.754 214.166C121.557 214.26 121.384 214.368 121.211 214.476C121.062 214.597 120.899 214.743 120.755 214.883C120.613 215.103 120.509 215.313 120.385 215.529C120.274 215.861 120.176 216.17 120.089 216.517C120.087 216.659 120.085 216.8 120.089 216.961C120.135 217.129 120.181 217.298 120.227 217.467C120.306 217.607 120.361 217.733 120.458 217.867C120.871 218.339 121.354 218.772 121.832 219.185C122.265 219.51 122.717 219.83 123.197 220.102C123.854 220.506 124.594 220.768 125.307 221.077C125.077 220.978 124.829 220.885 124.594 220.768C127.598 221.901 130.665 222.896 133.784 223.635C135.346 224.014 136.971 224.255 138.545 224.529C140.058 224.801 141.579 225.03 143.099 225.259C145.722 225.589 148.363 225.915 150.976 226.288C153.138 226.563 155.304 226.857 157.471 227.151C158.33 227.259 159.195 227.385 160.055 227.492C166.111 228.233 172.121 229.25 178.146 230.1C181.082 230.466 184.009 230.874 186.905 231.392C188.393 231.65 189.856 232.036 191.327 232.379C192.646 232.684 193.975 233.025 195.268 233.458C197.157 234.07 199.01 234.772 200.822 235.546C200.394 235.24 199.971 234.953 199.524 234.652L199.553 234.684ZM158.35 185.901C155.434 184.864 152.505 183.932 149.558 183.005C146.634 182.092 143.675 181.269 140.72 180.464C139.276 180.073 137.816 179.768 136.368 179.438C134.94 179.103 133.494 178.854 132.076 178.556C129.435 178.009 126.791 177.523 124.15 176.976C121.766 176.48 119.384 176.063 116.988 175.671C111.312 174.987 105.603 174.553 99.924 173.93C98.2147 173.753 96.5054 173.576 94.8013 173.417C93.4911 173.292 92.1911 173.205 90.8826 173.16C87.7637 173.086 84.6688 173.026 81.5464 173.235C79.3986 173.38 77.2628 173.642 75.1081 173.909C72.6896 174.249 70.2626 174.631 67.8784 175.243C65.5267 175.827 63.2058 176.522 60.9414 177.425C60.383 177.678 59.8297 177.951 59.3158 178.293C59.1342 178.443 58.9766 178.608 58.8053 178.796C58.5895 179.117 58.3924 179.433 58.2194 179.763C58.1748 179.896 58.1303 180.029 58.1046 180.157C58.0977 180.28 58.1045 180.379 58.1114 180.478C58.1781 180.721 58.2397 180.947 58.3065 181.19C58.6044 181.835 58.9537 182.445 59.3595 183.039C59.8749 183.664 60.3937 184.228 61.0017 184.747C61.1558 184.866 61.3288 184.98 61.4829 185.099C62.0943 185.557 62.7741 185.895 63.4866 186.204C65.2882 186.941 67.1019 187.573 68.9567 188.134C69.8627 188.41 70.7738 188.705 71.7209 188.91C72.5875 189.116 73.4576 189.261 74.3465 189.401C76.996 189.683 79.6628 189.659 82.3226 189.757C85.1538 189.89 87.9935 189.979 90.8264 189.97C93.5976 189.957 96.3654 189.784 99.1366 189.55C101.97 189.319 104.802 189.088 107.629 188.757C108.214 188.678 108.781 188.603 109.367 188.523C109.405 188.513 109.461 188.498 109.499 188.487C115.304 187.644 121.129 186.876 126.961 186.207C129.749 185.887 132.568 185.902 135.358 185.884C138.172 185.88 140.973 185.678 143.788 185.754C149.6 185.897 155.445 186.091 161.209 186.872C160.268 186.545 159.333 186.236 158.388 185.89L158.35 185.901ZM201.603 69.2773C201.603 69.2773 201.718 69.3266 201.766 69.3538C201.718 69.3266 201.651 69.3045 201.603 69.2773ZM201.785 69.3486C201.785 69.3486 201.809 69.3622 201.833 69.3758C201.833 69.3758 201.809 69.3622 201.785 69.3486ZM183.698 161.824C184.278 154.991 184.787 148.118 186.189 141.403C187.57 134.835 190.158 128.602 192.446 122.311C194.689 116.152 196.865 109.971 199.022 103.796C199.684 101.921 200.226 99.9783 200.753 98.0595C201.29 96.098 201.845 94.1314 202.339 92.1616C203.343 88.1364 204.158 84.0827 204.819 79.9901C204.89 79.5071 204.936 79.0105 204.988 78.5327C205.097 77.4542 205.027 76.3846 204.933 75.3014C204.873 74.9347 204.819 74.5868 204.721 74.2304C204.567 73.6677 204.399 73.129 204.189 72.5817C203.802 71.7602 203.364 70.9729 202.855 70.225C202.646 69.9798 202.405 69.7636 202.163 69.5474C202.139 69.5338 202.115 69.5202 202.091 69.5066C201.848 69.4321 201.586 69.3627 201.329 69.312C200.147 69.2121 198.964 69.2539 197.796 69.3519C197.083 69.4864 196.405 69.6721 195.723 69.9192C195.545 70.0083 195.353 70.1213 195.18 70.2292C194.529 70.8106 193.937 71.4568 193.392 72.1301C191.91 74.1891 190.711 76.3925 189.564 78.6419C188.946 79.8596 188.332 81.0961 187.695 82.319C187.041 83.6273 186.3 84.9187 185.713 86.249C184.967 88.187 184.275 90.1709 183.816 92.1919C183.456 93.7623 183.176 95.3308 182.883 96.9232C182.387 99.4783 181.873 102.039 181.487 104.624C180.978 108.534 180.445 112.43 179.868 116.318C179.535 119.393 179.259 122.453 179.068 125.529C178.977 127.046 178.867 128.568 178.857 130.083C178.85 131.759 178.843 133.434 178.873 135.099C178.891 138.199 178.848 141.296 178.947 144.394C178.988 145.875 179.176 147.376 179.316 148.849C179.456 150.323 179.61 151.773 179.769 153.242C180.21 156.185 180.845 159.096 181.456 161.994C182.089 165.046 182.416 168.163 183.03 171.221C183.099 171.545 183.162 171.85 183.23 172.174C183.225 172.155 183.22 172.136 183.215 172.118C183.346 168.674 183.439 165.242 183.736 161.813L183.698 161.824ZM148.905 110.56C149.788 103.725 150.605 96.8682 152.077 90.114C152.432 88.5249 152.872 86.9526 153.313 85.3804C153.789 83.7176 154.285 82.0497 154.876 80.4362C156.046 77.3132 157.326 74.2208 158.454 71.0894C158.954 69.6621 159.398 68.2502 159.765 66.7787C160.14 65.2646 160.344 63.7168 160.615 62.1909C160.886 60.6651 161.328 59.173 161.709 57.6777C162.058 56.2916 162.322 54.8886 162.525 53.4823C162.78 51.4566 162.865 49.3972 162.689 47.3485C162.447 45.8016 162.163 44.2462 161.64 42.7766C161.268 42.0114 160.808 41.2907 160.314 40.599C159.809 40.0115 159.253 39.4581 158.65 38.9578C158.376 38.7707 158.083 38.5888 157.776 38.4308C157.648 38.4054 157.514 38.3614 157.386 38.336C156.394 38.2648 155.396 38.3163 154.397 38.3679C153.311 38.5442 152.26 38.7716 151.206 39.1406C150.326 39.6236 149.505 40.2515 148.704 40.8742C147.875 41.5447 147.051 42.234 146.285 42.988C145.519 43.742 144.817 44.5795 144.157 45.4254C143.564 46.2934 143.028 47.1458 142.603 48.109C141.195 51.6197 140.178 55.3053 139.256 58.9652C138.211 63.062 137.571 67.3099 136.973 71.486C136.631 74.382 136.613 77.3506 136.618 80.2527C136.624 82.5696 136.645 84.8626 136.75 87.1724C136.888 91.0058 137.268 94.8335 137.742 98.6354C138.215 101.772 138.67 104.914 139.088 108.066C139.314 109.556 139.596 111.032 139.841 112.517C140.113 114.177 140.403 115.831 140.751 117.47C141.42 120.654 142.164 123.817 142.984 126.959C143.758 129.933 144.908 132.804 145.983 135.695C146.466 137.015 146.86 138.379 147.305 139.709C147.825 141.24 148.37 142.784 148.97 144.313C148.991 144.388 149.017 144.482 149.056 144.552C148.253 141.546 147.771 138.452 147.511 135.358C147.236 131.985 147.122 128.609 147.335 125.244C147.476 122.948 147.654 120.64 147.881 118.361C148.138 115.75 148.5 113.151 148.843 110.557L148.905 110.56ZM30.765 138.365C30.9534 138.757 31.1794 139.139 31.4242 139.515C31.8472 140.025 32.3352 140.476 32.837 140.903C33.7515 141.58 34.6985 142.228 35.6815 142.786C36.6405 143.329 37.6218 143.807 38.6305 144.236C41.0094 145.158 43.4105 146.013 45.8253 146.844C46.4076 147.047 46.9847 147.232 47.567 147.435C48.7453 147.818 49.9493 148.074 51.1859 148.3C52.2991 148.519 53.4072 148.72 54.5239 148.878C57.2916 149.148 60.0611 149.277 62.846 149.462C64.2744 149.576 65.7028 149.689 67.1398 149.759C68.6384 149.833 70.1405 149.845 71.6426 149.857C73.1258 149.874 74.6227 149.868 76.0957 149.848C77.5258 149.819 78.9474 149.833 80.3587 149.81C83.3235 149.764 86.2574 149.606 89.2205 149.48C95.1227 149.216 101.035 148.988 106.932 148.705C109.772 148.572 112.603 148.483 115.443 148.572C118.301 148.657 121.18 148.816 124.023 149.066C126.283 149.254 128.557 149.499 130.813 149.748C130.554 149.617 130.29 149.468 130.032 149.337C127.191 147.836 124.336 146.36 121.467 144.907C117.823 143.062 114.074 141.427 110.325 139.792C107.559 138.714 104.79 137.698 101.943 136.844C98.9394 135.932 95.9354 135.021 92.8835 134.304C86.7984 132.865 80.703 131.388 74.6333 129.783C72.7751 129.284 70.9169 128.785 69.0227 128.376C67.2192 128.002 65.4312 127.685 63.5969 127.421C60.6185 127.047 57.6058 126.844 54.6154 126.795C51.7243 126.74 48.8332 126.906 45.9454 127.233C43.9483 127.558 41.9768 127.977 40.002 128.457C38.2155 128.886 36.4736 129.403 34.7624 130.033C34.1852 130.291 33.637 130.583 33.1283 130.944C32.6024 131.39 32.1244 131.864 31.6619 132.394C31.2987 132.916 30.9646 133.472 30.6785 134.054C30.4626 134.597 30.2707 135.154 30.1215 135.719C30.1249 135.879 30.1232 136.021 30.1454 136.176C30.2652 136.909 30.4654 137.641 30.7171 138.338L30.765 138.365Z" fill="#E09590"/>
</svg>
