<svg width="275" height="326" viewBox="0 0 275 326" fill="none" xmlns="http://www.w3.org/2000/svg">
<g clip-path="url(#clip0_1_782)">
<path d="M238.939 156.935C238.626 156.161 238.338 155.374 237.935 154.636C237.51 153.832 236.979 153.12 236.405 152.416C235.424 151.216 234.213 150.115 232.862 149.381C231.059 148.381 229.07 147.694 227.064 147.144C226.183 146.902 225.297 146.68 224.424 146.481C221.318 145.751 218.209 145.182 215.015 144.995C213.55 144.897 212.086 144.799 210.628 144.824C209.175 144.831 207.72 144.917 206.289 144.991C203.073 145.182 199.872 145.538 196.685 146.061C193.683 146.574 190.732 147.343 187.794 148.137C184.766 148.966 181.724 149.771 178.687 150.558C175.627 151.358 172.549 152.073 169.475 152.849C166.491 153.589 163.555 154.525 160.624 155.441C157.621 156.399 154.7 157.501 151.796 158.688C150.163 159.353 148.579 160.133 146.981 160.889C145.684 161.505 144.393 162.102 143.114 162.723C138.153 165.167 133.314 167.828 128.462 170.464C129.212 169.637 129.975 168.835 130.693 167.979C132.525 165.851 134.365 163.765 136.196 161.636C137.112 160.572 138.06 159.536 138.99 158.496C139.924 157.437 140.84 156.373 141.769 155.332C143.715 153.154 145.651 151.013 147.546 148.801C149.445 146.57 151.248 144.251 153.13 142.014C153.639 141.405 154.148 140.796 154.638 140.182C155.135 139.913 155.502 139.528 155.858 139.039C156.379 138.312 156.868 137.555 157.352 136.818C157.818 136.217 158.285 135.616 158.733 135.011C158.986 134.675 159.215 134.354 159.468 134.018C160.712 133.226 162.043 132.559 163.356 131.887C165.818 130.619 168.308 129.399 170.853 128.275C175.237 126.543 179.838 125.416 184.409 124.322C189.205 123.147 194.098 122.425 198.987 121.721C201.622 121.371 204.274 121.106 206.913 120.817C209.925 120.49 212.935 120.02 215.935 119.587C215.661 119.634 215.391 119.661 215.122 119.688C218.344 119.256 221.579 118.848 224.795 118.292C226.466 118.002 228.143 117.692 229.793 117.335C231.352 117.014 232.899 116.588 234.431 116.219C237.33 115.496 240.233 114.753 243.057 113.787C244.616 113.243 246.176 112.699 247.7 112.065C248.495 111.736 249.277 111.384 250.077 111.037C251.22 110.541 252.382 110.05 253.449 109.391C254.898 108.514 256.174 107.386 257.44 106.296C259.033 104.891 260.787 103.49 261.658 101.483C262.166 100.287 262.603 99.1314 262.83 97.858C262.932 97.3395 262.987 96.7678 262.99 96.2424C262.965 95.669 262.842 95.0888 262.708 94.5462C262.571 93.942 262.244 93.3669 261.993 92.8123C261.908 92.6069 261.78 92.41 261.671 92.2183C261.076 91.2255 260.409 90.2737 259.526 89.5255C258.887 88.9863 258.19 88.512 257.47 88.0514C255.996 87.1011 254.438 86.168 252.747 85.6438C252.597 85.6027 252.428 85.5564 252.278 85.5153C250.872 85.1299 249.423 84.9755 247.972 84.9015C246.446 84.807 244.913 84.8117 243.398 84.8216C242.648 84.8385 241.885 84.9735 241.152 85.076C240.211 85.2024 239.283 85.3528 238.355 85.5032C236.878 85.7459 235.395 86.0073 233.927 86.2928C232.202 86.6295 230.491 86.9902 228.77 87.3885C225.844 88.0638 222.956 88.9719 220.086 89.8851C217.131 90.8154 214.166 91.7834 211.299 92.9807C209.522 93.7282 207.77 94.462 206.021 95.2574C204.505 95.9348 203.036 96.6652 201.548 97.3905C200.174 98.0662 198.825 98.8703 197.519 99.6658C196.314 100.388 195.096 101.086 193.877 101.784C191.033 103.412 188.184 105.06 185.368 106.736C181.251 109.19 177.18 111.696 173.263 114.447C173.429 114.209 173.595 113.971 173.761 113.733C175.347 111.396 176.887 109.005 178.372 106.599C179.874 104.199 181.238 101.719 182.657 99.2547C184.077 96.7904 185.394 94.2577 186.655 91.7096C187.293 90.4073 187.88 89.0708 188.462 87.7531C188.715 87.1952 188.95 86.6321 189.198 86.0931C189.316 85.8826 189.415 85.667 189.482 85.4222C189.761 84.7702 190.016 84.1319 190.258 83.4696C191.272 80.793 192.267 78.1113 193.295 75.4588C194.317 72.825 195.12 70.1107 196.067 67.4564C196.537 66.1079 196.987 64.7542 197.475 63.4108C197.984 61.9921 198.531 60.5836 199.045 59.1461C199.958 56.5431 200.731 53.8614 201.462 51.1882C202.291 48.1573 203.12 45.1264 203.911 42.0852C204.286 40.711 203.457 39.2491 202.088 38.874C200.719 38.4988 199.28 39.3388 198.886 40.7079C198.02 43.7285 197.135 46.744 196.25 49.7594C195.447 52.4737 194.64 55.2068 193.668 57.8748C193.16 59.2935 192.594 60.6968 192.053 62.0864C191.557 63.387 191.097 64.6979 190.619 66.0037C189.614 68.723 188.753 71.5023 187.692 74.2062C186.56 77.0933 185.498 80.0197 184.342 82.9204C184.232 83.1737 184.128 83.4081 184.018 83.6614C183.903 83.9335 183.77 84.2005 183.655 84.4726C183.363 85.1006 183.089 85.7338 182.81 86.3858C181.642 88.9596 180.33 91.4735 178.967 93.9532C177.623 96.4379 176.19 98.8782 174.757 101.318C174.143 102.385 173.496 103.422 172.845 104.477C172.876 104.364 172.901 104.27 172.932 104.157C173.737 101.14 174.523 98.1178 175.178 95.0595C175.511 93.4713 175.84 91.902 176.192 90.3189C176.563 88.741 176.958 87.1494 177.31 85.5663C178.086 82.1366 178.547 78.6812 179 75.183C179.406 72.0767 179.699 68.9396 179.827 65.8178C179.965 62.6584 180.066 59.4887 180.044 56.3258C180.038 54.7255 180.056 53.1116 179.946 51.5232C179.833 49.8733 179.653 48.2456 179.492 46.6231C179.306 44.8721 179.053 43.1434 178.701 41.4079C178.341 39.6295 177.8 37.923 177.069 36.2455C176.353 34.592 175.33 33.0976 174.231 31.6631C173.365 30.5555 172.454 29.5369 171.4 28.6005C169.347 26.8234 166.934 25.4741 164.328 24.7597C163.522 24.5387 162.7 24.3742 161.858 24.285C160.526 24.1426 159.208 24.2467 157.908 24.5784C156.286 24.9836 154.93 25.8869 153.697 27.0059C153.139 27.5004 152.635 28.0908 152.155 28.6674C151.321 29.653 150.4 30.7362 149.873 31.9273C149.494 32.7949 149.13 33.6865 148.845 34.5798C148.591 35.3602 148.445 36.1903 148.304 37.0015C147.975 38.7934 147.778 40.6212 147.586 42.4302C147.412 44.0219 147.381 45.6119 147.467 47.2139C147.554 48.958 147.826 50.6918 148.079 52.4205C148.452 54.8903 148.928 57.3481 149.363 59.8146C149.802 62.2621 150.175 64.7319 150.51 67.1915C151.215 72.0592 151.938 76.9321 152.6 81.8083C152.976 84.7848 153.332 87.756 153.646 90.7359C153.984 93.9245 154.353 97.1422 154.28 100.36C154.222 103.521 154.041 106.689 153.846 109.833C153.671 112.76 153.693 115.7 153.376 118.628C152.902 121.615 152.105 124.533 151.288 127.446C150.475 130.42 149.56 133.326 148.395 136.184C147.633 137.938 146.807 139.634 145.938 141.338C145.888 141.446 145.844 141.535 145.813 141.648C144.367 143.397 142.922 145.146 141.463 146.87C139.621 149.037 137.65 151.087 135.789 153.248C134.849 154.326 133.891 155.399 132.938 156.453C132.061 157.447 131.217 158.47 130.354 159.488C129.38 160.618 128.412 161.728 127.419 162.852C126.474 163.949 125.562 165.075 124.571 166.119C123.358 167.385 122.159 168.675 120.965 169.947C121.641 168.21 122.28 166.462 122.849 164.676C123.758 161.869 124.961 159.163 125.926 156.372C126.445 154.916 126.921 153.468 127.333 151.962C127.755 150.418 128.172 148.893 128.538 147.334C129.048 145.248 129.539 143.157 129.955 141.045C130.376 138.914 130.798 136.783 131.158 134.656C131.526 132.572 131.801 130.461 132.137 128.348C132.512 125.941 132.926 123.545 133.24 121.143C133.656 117.999 134.016 114.839 134.178 111.666C134.373 108.077 134.427 104.49 134.382 100.896C134.366 99.333 134.326 97.7841 134.182 96.2471C134.055 94.5732 133.763 92.9147 133.513 91.2476C133.258 89.5993 133.022 87.9562 132.706 86.3114C132.067 82.8985 131.29 79.5488 130.286 76.218C129.821 74.6741 129.338 73.125 128.812 71.5845C128.454 70.5353 127.992 69.498 127.567 68.4709C127.025 67.2094 126.178 66.107 125.368 65.0148C124.361 63.6864 123.271 62.4368 122.028 61.3068C120.656 60.0605 119.167 58.9442 117.655 57.8416C116.565 57.0369 115.35 56.542 114.075 56.1925C112.744 55.8276 111.347 55.627 109.978 55.4743C109.179 55.3766 108.348 55.3918 107.56 55.3984C106.575 55.3913 105.548 55.5348 104.571 55.793C103.721 56.0256 102.937 56.4584 102.2 56.9443C98.7244 59.1889 96.2932 62.9947 95.3811 66.9942C94.9774 68.7655 94.6623 70.5814 94.5689 72.3973C94.481 73.9718 94.6097 75.5653 94.7435 77.1399C94.9145 78.9473 95.1979 80.7856 95.6008 82.5554C95.9648 84.1728 96.443 85.7407 96.807 87.3582C97.1456 88.8473 97.3511 90.3809 97.6418 91.8973C97.9139 93.4087 98.3753 94.891 98.8844 96.3459C99.9877 99.4611 101.243 102.537 102.436 105.616C104.637 111.279 106.032 117.307 107.018 123.284C107.997 129.137 108.764 135.034 109.559 140.898C109.738 142.525 109.918 144.153 110.061 145.77C110.211 147.653 110.417 149.551 110.488 151.432C110.618 155.009 110.476 158.552 110.107 162.114C109.882 163.671 109.626 165.199 109.265 166.74C108.853 168.468 108.342 170.19 107.855 171.898C106.865 175.37 105.838 178.832 104.572 182.209C103.597 184.451 102.532 186.648 101.57 188.914C101.45 189.205 101.433 189.564 101.476 189.92C100.921 190.476 100.385 191.037 99.8246 191.612C97.7526 193.736 95.621 195.782 93.5354 197.882C90.1363 201.321 86.9772 204.988 83.9662 208.777C84.1 208.287 84.2339 207.798 84.3677 207.308C85.2221 204.183 86.0816 201.039 86.7673 197.868C87.4272 194.791 87.782 191.65 88.4794 188.584C89.189 185.399 89.9496 182.248 90.4478 179.025C90.7235 177.28 90.9004 175.527 91.1011 173.761C91.2879 172.193 91.432 170.634 91.5761 169.075C91.7221 167.435 91.718 165.755 91.7225 164.117C91.7335 162.602 91.7394 161.106 91.7692 159.596C91.8008 158.007 91.8137 156.411 91.8078 154.811C91.8071 153.192 91.7075 151.566 91.6266 149.945C91.4277 146.471 91.2153 142.972 90.723 139.539C90.5242 138.129 90.3253 136.718 90.1315 135.289C90.1466 135.455 90.1804 135.626 90.1955 135.792C89.9834 134.136 89.7661 132.498 89.5353 130.836C89.3147 129.136 89.0941 127.436 88.8548 125.732C88.6442 124.217 88.292 122.704 88.0012 121.187C87.6681 119.457 87.3402 117.708 87.0071 115.977C86.434 112.987 85.397 110.072 84.2301 107.263C83.8632 106.394 83.3684 105.55 82.9349 104.703C82.5916 104.042 82.2618 103.405 81.9236 102.725C81.2064 101.294 80.4943 99.8446 79.7344 98.4222C78.9609 96.9758 78.1977 95.4917 77.2569 94.1411C76.4165 92.9394 75.5949 91.7428 74.5905 90.6985C73.9181 89.9881 73.1773 89.3803 72.3836 88.8187C71.7244 88.3547 70.8859 88.1046 70.1377 87.8186C69.8804 87.7278 69.623 87.6371 69.3606 87.5651C67.9544 87.1797 66.4419 87.1091 65.0232 87.0642C63.9012 87.04 62.7398 87.0859 61.655 87.2944C60.6315 87.4995 59.6708 87.8433 58.7576 88.3822C57.94 88.8664 57.2448 89.5662 56.6621 90.2969C55.4677 91.7907 54.6191 93.4198 53.946 95.2185C53.3173 96.9281 53.0655 98.6601 52.9107 100.479C52.7997 101.623 52.9155 102.747 53.05 103.877C53.1846 105.006 53.343 106.122 53.5253 107.225C53.7904 108.835 54.0981 110.437 54.4007 112.058C54.9907 115.134 55.77 118.181 56.5785 121.195C57.4089 124.276 58.2342 127.376 59.2831 130.395C60.4337 133.705 61.5896 136.997 62.7829 140.299C63.8336 143.238 64.8603 146.19 65.9349 149.115C66.5783 150.89 67.2455 152.652 67.9076 154.432C68.4101 155.764 68.9502 157.106 69.4049 158.465C70.2769 161.172 71.2052 163.896 71.7923 166.687C72.1121 168.171 72.4132 169.65 72.6529 171.132C72.8672 172.486 73.0628 173.835 73.2345 175.197C73.751 179.427 74.1822 183.673 74.4906 187.926C74.6806 190.548 74.8144 193.155 74.9243 195.775C75.1522 201.281 75.2044 206.84 74.532 212.322C74.0441 215.507 73.1471 218.641 72.3165 221.752C72.1416 222.392 72.2018 223.056 72.4481 223.63C71.8893 224.347 71.3493 225.069 70.8092 225.791C68.931 228.311 67.0527 230.832 65.1745 233.353C63.4039 235.7 61.7918 238.132 60.2069 240.611C58.6033 243.086 57.0456 245.613 55.6515 248.206C55.4104 248.646 55.1828 249.11 54.9416 249.549C55.3012 247.645 55.7034 245.731 56.1431 243.828C56.8335 240.861 57.2938 237.85 57.853 234.847C58.1129 233.38 58.4104 231.923 58.7078 230.467C59.0104 228.992 59.2754 227.506 59.6394 226.028C59.9743 224.581 60.3093 223.135 60.6118 221.66C60.9129 220.043 61.139 218.405 61.3464 216.762C61.3777 216.426 61.4276 216.096 61.4777 215.766C61.7898 213.666 62.1019 211.566 62.3578 209.451C62.7942 206.454 63.0942 203.44 63.3328 200.429C63.5714 197.419 63.8766 194.386 63.8373 191.36C63.8134 188.278 63.7094 185.194 63.6002 182.128C63.5616 180.721 63.523 179.314 63.4179 177.93C63.2742 176.17 63.0554 174.39 62.8077 172.643C62.3676 169.608 61.757 166.608 60.928 163.669C60.5313 162.245 60.092 160.829 59.5435 159.444C59.1954 158.58 58.8524 157.697 58.4991 156.851C58.2171 156.187 57.8635 155.564 57.515 154.922C56.8179 153.638 56.068 152.401 55.2702 151.19C54.8875 150.6 54.4758 150.042 54.0453 149.479C53.4225 148.66 52.7005 148.058 51.8898 147.411C51.0928 146.787 50.287 146.344 49.3275 146.02C49.2525 146 49.1775 145.979 49.0837 145.953C48.7087 145.851 48.3234 145.785 47.9518 145.744C46.1566 145.455 44.4173 145.403 42.6097 145.454C41.3494 145.493 40.1127 145.741 38.915 146.141C38.3826 146.319 37.8588 146.539 37.3349 146.76C36.3588 147.16 35.5033 147.857 34.7739 148.608C33.421 150.018 32.6438 151.828 32.0269 153.642C31.5402 155.128 31.2086 156.635 30.8531 158.157C30.1145 161.374 30.1755 164.69 30.3321 167.95C30.4026 169.609 30.4493 171.281 30.7041 172.929C30.9217 174.344 31.1529 175.784 31.4507 177.201C32.1036 180.415 32.7804 183.616 33.6465 186.788C34.4652 189.764 35.4118 192.715 36.3397 195.661C37.3117 198.74 38.3076 201.806 39.2557 204.899C40.209 207.973 41.0292 211.092 42.0677 214.149C43.0434 217.067 44.043 219.972 44.8856 222.934C45.1653 223.902 45.4826 224.879 45.6958 225.868C45.9447 226.948 46.2362 228.02 46.4237 229.103C46.7733 231.142 47.0803 233.189 47.3821 235.255C47.6883 237.747 47.9758 240.234 48.1967 242.743C48.2537 243.345 48.3243 243.972 48.3438 244.564C48.3526 245.416 48.3801 246.274 48.389 247.126C48.4125 248.367 48.3422 249.582 48.2856 250.821C48.179 253.423 48.0911 256.029 47.8668 258.619C47.7521 259.923 47.6749 261.237 47.5227 262.531C47.3569 263.801 47.1962 265.052 47.0304 266.322C46.765 268.03 46.4808 269.733 46.1028 271.41C45.9826 271.923 45.8573 272.456 45.7131 272.983C45.5131 273.272 45.2944 273.556 45.1132 273.85C44.6977 274.485 44.647 275.261 44.8573 275.966C44.8109 276.135 44.7595 276.323 44.7132 276.493C44.5639 277.039 44.5749 277.588 44.7378 278.098C44.6091 278.569 44.4804 279.04 44.3569 279.491C43.9812 280.866 44.8109 282.327 46.1796 282.703C47.5483 283.078 49.006 282.243 49.3817 280.869C49.6751 279.796 49.9685 278.723 50.2806 277.655C50.5361 276.794 50.7968 275.914 51.0335 275.048C51.1019 274.946 51.189 274.848 51.2574 274.745C52.0673 273.773 53.0544 272.891 54.0073 272.059C55.7882 270.706 57.6778 269.544 59.627 268.459C60.5777 267.931 61.5148 267.378 62.4979 266.879C63.5287 266.352 64.5629 265.887 65.6158 265.426C67.0014 264.855 68.3903 264.345 69.7928 263.86C71.3898 263.326 73.0174 262.902 74.6772 262.507C76.4411 262.1 78.1999 261.712 79.9807 261.391C81.4869 261.116 83.0339 260.912 84.5622 260.704C85.4371 260.6 86.3121 260.496 87.1735 260.368C92.4251 259.662 97.6378 258.804 102.876 258.075C104.002 257.938 105.132 257.783 106.282 257.632C106.178 257.644 106.074 257.656 105.97 257.668C107.223 257.506 108.482 257.325 109.717 257.157C111.539 256.908 113.355 256.677 115.177 256.428C118.015 256.073 120.875 255.784 123.702 255.325C126.485 254.873 129.272 254.484 131.99 253.832C134.793 253.164 137.587 252.23 140.285 251.209C141.751 250.64 143.208 250.027 144.507 249.109C145.207 248.612 145.885 248.049 146.526 247.476C146.825 247.194 147.124 246.912 147.409 246.605C148.217 245.714 148.746 244.665 149.111 243.551C149.537 242.211 149.437 240.807 149.143 239.452C148.981 238.719 148.634 237.997 148.314 237.322C147.951 236.514 147.345 235.782 146.698 235.2C145.876 234.448 144.908 233.859 143.86 233.491C143.635 233.429 143.396 233.343 143.171 233.282C142.684 233.148 142.186 233.052 141.683 232.975C138.689 232.498 135.669 232.561 132.651 232.543C131.203 232.531 129.737 232.513 128.284 232.52C126.85 232.531 125.426 232.728 124.006 232.905C120.861 233.278 117.713 233.811 114.596 234.373C111.65 234.901 108.727 235.496 105.779 236.105C102.874 236.705 100.031 237.666 97.2126 238.613C91.5992 240.495 86.0078 242.443 80.5234 244.663C77.7574 245.786 74.9214 246.871 72.3031 248.339C69.7565 249.765 67.2779 251.312 64.8317 252.888C63.635 253.652 62.4707 254.446 61.32 255.264C60.3179 255.981 59.2969 256.693 58.3951 257.558C57.869 258.082 57.3378 258.624 56.8253 259.172C56.4 259.622 55.9695 260.091 55.539 260.56C55.5493 260.522 55.5595 260.484 55.5698 260.447C56.7081 257.905 57.8327 255.34 59.1856 252.898C60.6275 250.278 62.1153 247.711 63.7105 245.194C65.3056 242.677 66.9008 240.16 68.6816 237.774C70.4334 235.421 72.2176 233.098 73.983 230.769C75.2579 229.054 76.5653 227.369 77.8726 225.683C78.3049 225.134 78.7373 224.584 79.1747 224.016C80.607 223.053 82.0478 222.133 83.4886 221.212C84.519 220.908 85.558 220.646 86.6021 220.366C88.5196 219.839 90.4321 219.331 92.3853 218.895C96.3344 218.015 100.338 217.453 104.346 216.872C106.915 216.544 109.509 216.345 112.101 216.225C113.489 216.161 114.896 216.101 116.289 216.018C117.621 215.938 118.977 215.844 120.312 215.825C123.162 215.797 126.008 215.929 128.852 215.92C131.696 215.91 134.53 215.939 137.362 216.27C137.969 216.335 138.571 216.419 139.173 216.503C139.173 216.503 139.173 216.503 139.192 216.508C139.229 216.518 139.267 216.528 139.323 216.544C139.285 216.534 139.248 216.523 139.21 216.513C139.267 216.528 139.323 216.544 139.403 216.546C141.077 216.762 142.733 216.973 144.407 217.189C144.313 217.163 144.214 217.156 144.115 217.149C144.247 217.185 144.407 217.189 144.543 217.206C144.637 217.232 144.736 217.238 144.816 217.24C144.76 217.225 144.722 217.214 144.661 217.218C145.672 217.353 146.683 217.489 147.713 217.629C150.703 218.044 153.686 218.559 156.687 218.936C159.509 219.305 162.334 219.512 165.168 219.763C167.921 220.012 170.714 220.191 173.483 220.161C176.352 220.137 179.203 220.028 182.06 219.901C183.448 219.836 184.858 219.838 186.246 219.774C187.917 219.706 189.577 219.533 191.238 219.28C194.078 218.844 196.868 217.93 199.555 216.946C201.639 216.182 203.77 215.39 205.551 214.036C206.189 213.544 206.847 213.056 207.412 212.462C208.025 211.841 208.56 211.138 209.076 210.429C209.987 209.161 210.696 207.676 211.033 206.149C211.453 204.241 210.995 202.233 209.923 200.624C209.641 200.183 209.316 199.75 208.98 199.354C208.323 198.587 207.526 197.964 206.656 197.462C205.925 197.039 205.126 196.719 204.345 196.404C203.672 196.139 202.98 195.868 202.297 195.64C200.968 195.195 199.647 194.792 198.297 194.422C198.203 194.397 198.109 194.371 198.034 194.35C195.466 193.646 192.806 193.201 190.169 192.822C187.042 192.39 183.905 191.995 180.749 191.818C177.828 191.665 174.866 191.662 171.951 191.855C165.778 192.247 159.632 193.052 153.498 193.596C150.458 193.876 147.414 194.175 144.412 194.687C141.239 195.234 138.116 195.896 134.974 196.552C132.063 197.171 129.145 197.747 126.235 198.366C123.41 198.968 120.581 199.73 117.812 200.57C114.867 201.463 111.89 202.326 108.971 203.347C105.937 204.418 102.922 205.494 99.8969 206.607C99.0642 206.925 98.2348 207.305 97.4157 207.647C96.4158 208.061 95.4022 208.451 94.4107 208.908C92.6034 209.768 90.7876 210.586 89.016 211.537C90.5777 209.658 92.1718 207.808 93.8034 205.969C95.7441 203.809 97.7768 201.756 99.8657 199.718C104.078 195.591 108.179 191.353 112.34 187.191C113.035 186.492 113.725 185.811 114.42 185.111C115.311 184.728 116.207 184.326 117.098 183.942C121.766 182.126 126.695 180.907 131.641 180.138C134.29 179.812 136.97 179.595 139.64 179.336C140.945 179.208 142.267 179.165 143.561 179.075C144.997 178.983 146.423 178.928 147.867 178.879C150.794 178.791 153.703 178.839 156.642 178.998C159.483 179.149 162.324 179.3 165.17 179.433C168.114 179.572 171.051 179.669 174.014 179.813C176.959 179.953 179.893 180.13 182.84 180.189C184.301 180.225 185.778 180.205 187.239 180.241C188.738 180.288 190.247 180.297 191.738 180.301C194.62 180.301 197.476 180.174 200.353 179.971C203.23 179.768 206.138 179.674 208.998 179.386C210.676 179.219 212.353 178.909 214.03 178.6C215.262 178.371 216.498 178.123 217.696 177.723C218.513 177.461 219.336 177.181 220.139 176.895C221.518 176.423 222.869 175.903 224.253 175.412C225.823 174.831 227.398 174.23 228.905 173.51C230.25 172.867 231.54 172.128 232.757 171.288C234.094 170.38 235.419 169.367 236.48 168.14C237.628 166.815 238.461 165.243 238.948 163.535C239.206 162.593 239.393 161.613 239.482 160.625C239.591 159.34 239.327 158.094 238.864 156.915L238.939 156.935ZM179.66 117.071C184.893 113.709 190.266 110.568 195.699 107.504C198.107 106.141 200.488 104.729 202.91 103.39C205.418 102.033 207.977 100.853 210.57 99.7017C212.979 98.7027 215.402 97.7278 217.864 96.9052C220.569 96.0073 223.314 95.1814 226.054 94.3742C231.097 92.8831 236.274 91.9345 241.461 91.1708C242.691 91.0222 243.9 90.9489 245.145 90.9664C246.446 90.9992 247.76 91.0561 249.059 91.1693C249.83 91.2996 250.585 91.4864 251.344 91.7347C252.664 92.3598 253.938 93.1542 255.122 93.9846C255.354 94.1695 255.561 94.3681 255.745 94.5804C256.06 95.0511 256.332 95.5304 256.58 96.0234C256.611 96.133 256.641 96.2425 256.672 96.352C256.67 96.4325 256.673 96.4941 256.671 96.5745C256.544 97.1872 256.342 97.7794 256.135 98.3903C255.98 98.7326 255.813 99.0509 255.621 99.3829C254.858 100.185 254.016 100.906 253.211 101.636C252.624 102.163 252.042 102.671 251.464 103.161C250.606 103.796 249.73 104.345 248.752 104.825C247.774 105.306 246.774 105.72 245.788 106.158C243.131 107.251 240.398 108.181 237.62 108.978C234.558 109.859 231.456 110.587 228.369 111.339C225.409 112.066 222.352 112.483 219.328 112.929C216.157 113.395 212.973 113.838 209.807 114.285C209.196 114.381 208.586 114.477 207.962 114.548C204.736 114.919 201.503 115.247 198.281 115.679C195.181 116.104 192.099 116.615 189.012 117.145C186.095 117.641 183.197 118.364 180.331 119.116C178.266 119.663 176.183 120.205 174.136 120.838C175.944 119.533 177.766 118.251 179.647 117.047L179.66 117.071ZM159.476 87.8415C158.867 82.1095 158.049 76.4013 157.293 70.6898C157.338 70.9654 157.37 71.217 157.397 71.4874C156.899 67.7083 156.4 63.9291 155.798 60.1619C155.222 56.6652 154.523 53.1752 154.028 49.6802C153.858 48.2373 153.712 46.7808 153.745 45.3328C153.767 43.7805 153.943 42.2505 154.12 40.7204C154.402 38.8755 154.717 37.0596 155.356 35.3123C155.618 34.7972 155.893 34.3061 156.225 33.8304C156.953 32.9372 157.708 32.0919 158.579 31.339C158.746 31.2432 158.914 31.1474 159.081 31.0516C159.414 30.9405 159.741 30.8481 160.077 30.7986C160.531 30.761 160.969 30.78 161.421 30.8229C162.2 30.9959 162.945 31.2203 163.698 31.4875C164.627 31.9242 165.497 32.4259 166.323 33.0166C166.846 33.4634 167.364 33.9291 167.833 34.4221C168.336 34.9443 168.785 35.5126 169.21 36.0946C169.964 37.1714 170.622 38.3028 171.16 39.5027C171.855 41.5345 172.298 43.5987 172.603 45.7262C172.923 48.2422 173.19 50.8044 173.24 53.3477C173.303 56.36 173.286 59.3705 173.232 62.3708C173.18 65.0682 173.071 67.7501 172.84 70.4388C172.604 73.1464 172.292 75.8333 171.957 78.534C171.74 79.9922 171.522 81.4503 171.211 82.8828C170.842 84.6028 170.435 86.3125 170.047 88.0273C169.336 91.0702 168.812 94.1645 168.077 97.2211C166.616 103.377 164.929 109.471 162.597 115.348C162.482 115.62 162.362 115.911 162.248 116.183C161.157 118.697 159.825 121.064 158.423 123.391C159.094 120.641 159.479 117.832 159.591 114.99C159.725 111.626 159.952 108.289 160.142 104.941C160.31 102.114 160.351 99.3123 160.217 96.4831C160.075 93.6111 159.73 90.7443 159.423 87.8877L159.476 87.8415ZM52.4036 227.282C52.2584 226.412 52.0279 225.56 51.8401 224.699C51.6912 223.991 51.4945 223.309 51.303 222.609C50.4589 219.504 49.5057 216.43 48.5046 213.383C47.5172 210.361 46.6867 207.28 45.771 204.216C44.8857 201.262 43.9578 198.316 43.0487 195.375C42.4381 193.407 41.8274 191.438 41.2407 189.456C40.6099 187.341 39.9415 185.215 39.4437 183.055C38.5684 179.253 37.7784 175.435 37.1777 171.587C36.9259 168.159 36.7697 164.676 37.0653 161.236C37.4613 158.977 37.9697 156.748 38.7594 154.597C38.9818 154.152 39.2179 153.731 39.4914 153.321C39.6075 153.191 39.7425 153.066 39.8586 152.936C40.0976 152.799 40.3366 152.662 40.5943 152.53C41.1079 152.347 41.635 152.188 42.1571 152.048C43.542 151.922 44.971 151.929 46.3452 152.063C46.7679 152.138 47.1907 152.214 47.6032 152.327C47.8128 152.445 48.0172 152.582 48.2028 152.714C48.5587 153.034 48.8907 153.368 49.1936 153.734C50.6413 155.81 52.0291 158.032 53.0416 160.374C53.4831 161.486 53.9246 162.599 54.2705 163.766C54.7047 165.201 55.1337 166.654 55.4774 168.124C56.1329 170.813 56.6281 173.499 57.009 176.234C57.2997 178.782 57.4115 181.322 57.4993 183.876C57.6022 186.595 57.7239 189.32 57.8029 192.054C57.8684 194.763 57.5603 197.511 57.3614 200.229C57.1761 202.971 56.9242 205.735 56.5786 208.473C56.6132 208.2 56.6426 207.945 56.6959 207.676C56.5441 208.747 56.4058 209.843 56.2727 210.919C55.9224 213.454 55.6521 215.99 55.3205 218.53C55.1135 219.95 54.869 221.361 54.5683 222.756C54.2521 224.207 53.9223 225.634 53.6437 227.096C53.4062 228.407 53.1551 229.694 52.9363 231.01C52.7525 229.765 52.5687 228.521 52.3661 227.272L52.4036 227.282ZM64.5905 259.52C65.2136 259.083 65.8607 258.634 66.4974 258.221C67.9569 257.306 69.4113 256.409 70.8844 255.518C72.0946 254.777 73.3237 254.042 74.5747 253.373C75.2626 252.995 75.9453 252.635 76.628 252.276C77.1673 251.999 77.7338 251.77 78.2816 251.536C78.2338 251.563 78.1911 251.572 78.1433 251.599C80.9572 250.448 83.7608 249.334 86.5967 248.25C89.2466 247.256 91.9135 246.348 94.599 245.445C97.5747 244.439 100.532 243.429 103.538 242.533C106.155 241.732 108.879 241.204 111.579 240.69C115.786 239.9 119.987 239.129 124.227 238.511C125.542 238.345 126.847 238.217 128.179 238.137C129.572 238.053 131 238.141 132.41 238.143C135.022 238.171 137.618 238.114 140.206 238.378C140.845 238.472 141.474 238.604 142.088 238.793C142.284 238.887 142.456 238.995 142.628 239.103C142.776 239.224 142.938 239.37 143.081 239.51C143.222 239.731 143.326 239.941 143.448 240.157C143.558 240.491 143.655 240.801 143.741 241.148C143.743 241.29 143.744 241.432 143.741 241.593C143.694 241.762 143.648 241.932 143.602 242.101C143.523 242.242 143.468 242.368 143.371 242.503C142.959 242.977 142.477 243.412 142.001 243.828C141.569 244.155 141.118 244.476 140.64 244.75C139.985 245.157 139.248 245.421 138.538 245.732C138.767 245.633 139.014 245.539 139.248 245.421C136.255 246.563 133.199 247.567 130.093 248.314C128.537 248.697 126.918 248.941 125.35 249.22C123.844 249.495 122.33 249.728 120.815 249.96C118.204 250.296 115.574 250.628 112.971 251.007C110.818 251.287 108.661 251.586 106.503 251.885C105.647 251.994 104.785 252.123 103.929 252.232C97.8981 252.987 91.9127 254.017 85.9122 254.882C82.9887 255.254 80.0738 255.669 77.1893 256.194C75.707 256.456 74.2501 256.845 72.7847 257.192C71.4711 257.5 70.1473 257.846 68.8591 258.282C66.9772 258.899 65.1309 259.607 63.3254 260.387C63.7523 260.079 64.1739 259.79 64.6195 259.487L64.5905 259.52ZM105.704 210.506C108.609 209.461 111.527 208.52 114.463 207.585C117.376 206.663 120.324 205.832 123.267 205.02C124.705 204.625 126.16 204.315 127.601 203.982C129.024 203.643 130.464 203.39 131.876 203.089C134.507 202.536 137.14 202.043 139.771 201.49C142.145 200.987 144.518 200.565 146.904 200.167C152.557 199.47 158.241 199.025 163.897 198.389C165.599 198.208 167.301 198.027 168.998 197.865C170.303 197.737 171.597 197.647 172.9 197.599C176.006 197.52 179.087 197.454 182.195 197.658C184.334 197.799 186.46 198.058 188.604 198.322C191.012 198.658 193.427 199.037 195.8 199.647C198.14 200.228 200.45 200.921 202.703 201.822C203.258 202.076 203.809 202.348 204.32 202.69C204.5 202.841 204.657 203.005 204.827 203.194C205.041 203.516 205.237 203.832 205.408 204.163C205.453 204.296 205.497 204.43 205.522 204.558C205.529 204.681 205.522 204.78 205.515 204.88C205.448 205.124 205.386 205.35 205.319 205.595C205.021 206.242 204.672 206.855 204.267 207.452C203.753 208.08 203.235 208.646 202.629 209.168C202.475 209.288 202.303 209.402 202.149 209.522C201.54 209.982 200.862 210.323 200.152 210.634C198.357 211.377 196.55 212.014 194.703 212.581C193.8 212.859 192.892 213.157 191.949 213.364C191.086 213.572 190.219 213.719 189.334 213.861C186.695 214.15 184.04 214.13 181.392 214.234C178.573 214.372 175.746 214.467 172.925 214.463C170.166 214.455 167.411 214.287 164.652 214.057C161.832 213.83 159.012 213.603 156.198 213.278C155.615 213.199 155.051 213.125 154.468 213.046C154.431 213.036 154.374 213.02 154.337 213.01C148.559 212.175 142.761 211.415 136.955 210.755C134.18 210.439 131.373 210.459 128.595 210.446C125.793 210.447 123.006 210.25 120.202 210.331C114.416 210.486 108.595 210.691 102.856 211.486C103.793 211.156 104.724 210.844 105.666 210.495L105.704 210.506ZM62.8552 93.5931C62.8552 93.5931 62.7409 93.6427 62.6931 93.6701C62.7409 93.6427 62.8075 93.6205 62.8552 93.5931ZM62.6744 93.6649C62.6744 93.6649 62.6505 93.6786 62.6266 93.6923C62.6266 93.6923 62.6505 93.6786 62.6744 93.6649ZM80.511 186.399C79.946 179.546 79.4526 172.652 78.0689 165.919C76.7054 159.332 74.1408 153.085 71.8748 146.777C69.6528 140.603 67.4975 134.407 65.3608 128.216C64.7057 126.337 64.1701 124.389 63.648 122.465C63.1176 120.498 62.5683 118.526 62.0805 116.551C61.0879 112.515 60.2847 108.45 59.6332 104.346C59.5641 103.861 59.5189 103.363 59.4685 102.884C59.3612 101.802 59.4329 100.729 59.5285 99.6425C59.5888 99.2745 59.6439 98.9254 59.7417 98.5677C59.8961 98.0029 60.0641 97.4621 60.2748 96.9128C60.6616 96.0879 61.0994 95.2973 61.6071 94.5461C61.8156 94.2997 62.0564 94.0824 62.2972 93.8651C62.3211 93.8514 62.345 93.8377 62.3689 93.824C62.6111 93.7488 62.8722 93.6787 63.128 93.6274C64.3048 93.525 65.4831 93.5647 66.6459 93.6608C67.3551 93.7945 68.03 93.9795 68.7083 94.2262C68.8855 94.3152 69.0763 94.4282 69.2484 94.5361C69.8954 95.1182 70.4844 95.7653 71.0255 96.4397C72.4971 98.5025 73.6872 100.711 74.8242 102.965C75.4378 104.185 76.0462 105.425 76.6785 106.65C77.3278 107.962 78.0623 109.256 78.645 110.589C79.3836 112.532 80.0692 114.521 80.5228 116.547C80.8783 118.122 81.1537 119.695 81.4426 121.292C81.9312 123.854 82.4385 126.422 82.8179 129.015C83.3178 132.936 83.8417 136.843 84.4082 140.742C84.7339 143.827 85.0033 146.895 85.1875 149.981C85.2754 151.503 85.382 153.029 85.3897 154.549C85.3937 156.23 85.3977 157.911 85.3643 159.581C85.3404 162.691 85.3778 165.797 85.2738 168.905C85.2304 170.391 85.0403 171.897 84.898 173.376C84.7557 174.855 84.5999 176.309 84.4388 177.783C83.994 180.737 83.3565 183.658 82.7429 186.566C82.1068 189.629 81.776 192.756 81.1587 195.825C81.0899 196.15 81.0263 196.456 80.9576 196.781C80.9627 196.763 80.9679 196.744 80.973 196.725C80.8491 193.271 80.7628 189.828 80.4735 186.389L80.511 186.399ZM115.247 134.909C114.38 128.054 113.58 121.177 112.126 114.404C111.776 112.811 111.34 111.234 110.905 109.658C110.434 107.991 109.944 106.318 109.358 104.701C108.198 101.57 106.93 98.4702 105.813 95.331C105.317 93.9001 104.878 92.4845 104.515 91.0091C104.145 89.4909 103.944 87.9385 103.677 86.4083C103.41 84.8782 102.973 83.3822 102.597 81.8828C102.251 80.493 101.991 79.0861 101.792 77.6757C101.541 75.6441 101.461 73.5783 101.64 71.5228C101.883 69.9705 102.169 68.4097 102.693 66.9345C103.065 66.1661 103.525 65.4423 104.017 64.7475C104.521 64.1572 105.076 63.6011 105.677 63.098C105.95 62.9098 106.242 62.7268 106.548 62.5677C106.676 62.542 106.809 62.4976 106.937 62.4719C107.924 62.3986 108.918 62.4485 109.912 62.4984C110.993 62.6732 112.04 62.8994 113.088 63.2677C113.963 63.7505 114.779 64.3789 115.576 65.0021C116.401 65.6732 117.22 66.3631 117.981 67.1181C118.742 67.8731 119.439 68.7119 120.094 69.5593C120.683 70.4289 121.215 71.283 121.637 72.2485C123.033 75.7677 124.038 79.4631 124.949 83.1328C125.982 87.2407 126.611 91.5008 127.2 95.6891C127.534 98.5936 127.546 101.572 127.536 104.483C127.526 106.807 127.501 109.107 127.392 111.425C127.247 115.271 126.862 119.111 126.384 122.926C125.906 126.073 125.447 129.226 125.026 132.389C124.798 133.884 124.514 135.365 124.268 136.855C123.994 138.521 123.702 140.181 123.353 141.825C122.681 145.021 121.934 148.195 121.112 151.349C120.336 154.334 119.185 157.216 118.109 160.118C117.626 161.443 117.232 162.812 116.786 164.147C116.265 165.684 115.72 167.234 115.119 168.769C115.099 168.845 115.073 168.939 115.034 169.009C115.838 165.992 116.325 162.887 116.589 159.783C116.869 156.399 116.989 153.012 116.783 149.637C116.647 147.333 116.474 145.019 116.252 142.732C116.001 140.114 115.645 137.507 115.309 134.905L115.247 134.909ZM232.819 162.583C232.631 162.977 232.406 163.36 232.161 163.738C231.739 164.25 231.252 164.703 230.752 165.133C229.84 165.814 228.896 166.466 227.916 167.027C226.961 167.574 225.983 168.055 224.977 168.488C222.607 169.416 220.215 170.278 217.809 171.116C217.229 171.322 216.654 171.508 216.074 171.713C214.9 172.1 213.701 172.358 212.469 172.587C211.361 172.809 210.257 173.013 209.145 173.173C206.389 173.45 203.631 173.584 200.858 173.775C199.436 173.891 198.013 174.007 196.583 174.08C195.09 174.157 193.595 174.172 192.099 174.187C190.622 174.207 189.132 174.204 187.666 174.186C186.242 174.16 184.826 174.177 183.421 174.156C180.47 174.116 177.549 173.963 174.599 173.842C168.723 173.587 162.837 173.37 156.966 173.096C154.139 172.969 151.32 172.885 148.493 172.98C145.647 173.07 142.78 173.235 139.949 173.491C137.699 173.684 135.434 173.933 133.188 174.187C133.446 174.056 133.708 173.905 133.966 173.774C136.798 172.263 139.643 170.776 142.501 169.314C146.133 167.456 149.869 165.809 153.604 164.162C156.36 163.075 159.119 162.051 161.955 161.189C164.947 160.269 167.94 159.349 170.98 158.624C177.041 157.169 183.113 155.677 189.159 154.056C191.01 153.551 192.861 153.047 194.747 152.633C196.544 152.255 198.325 151.934 200.151 151.666C203.117 151.285 206.117 151.075 209.095 151.021C211.973 150.96 214.851 151.122 217.726 151.444C219.714 151.767 221.676 152.183 223.641 152.661C225.419 153.088 227.152 153.603 228.855 154.232C229.429 154.49 229.974 154.781 230.48 155.143C231.003 155.59 231.478 156.064 231.938 156.594C232.298 157.118 232.63 157.675 232.914 158.258C233.128 158.803 233.318 159.361 233.465 159.927C233.461 160.088 233.463 160.23 233.44 160.386C233.32 161.122 233.119 161.856 232.867 162.556L232.819 162.583Z" fill="#E09590"/>
</g>
<defs>
<clipPath id="clip0_1_782">
<rect width="208" height="280" fill="white" transform="matrix(0.964425 0.264357 -0.263728 0.964597 74 0)"/>
</clipPath>
</defs>
</svg>
