<svg width="23" height="24" viewBox="0 0 23 24" fill="none" xmlns="http://www.w3.org/2000/svg">
<path d="M11.5 0.5C8.37919 0.5 7.98675 0.514375 6.76056 0.569C5.53438 0.6265 4.69919 0.819125 3.9675 1.10375C3.20001 1.39243 2.50483 1.84525 1.93056 2.43056C1.34561 3.00513 0.892842 3.70022 0.60375 4.4675C0.319125 5.19775 0.125062 6.03437 0.069 7.25625C0.014375 8.48531 0 8.87631 0 12.0014C0 15.1237 0.014375 15.5147 0.069 16.7409C0.1265 17.9656 0.319125 18.8008 0.60375 19.5325C0.898438 20.2886 1.29088 20.9297 1.93056 21.5694C2.56881 22.2091 3.20994 22.603 3.96606 22.8962C4.69919 23.1809 5.53294 23.3749 6.75769 23.431C7.98531 23.4856 8.37631 23.5 11.5 23.5C14.6237 23.5 15.0133 23.4856 16.2409 23.431C17.4642 23.3735 18.3022 23.1809 19.0339 22.8962C19.8009 22.6074 20.4956 22.1546 21.0694 21.5694C21.7091 20.9297 22.1016 20.2886 22.3962 19.5325C22.6794 18.8008 22.8735 17.9656 22.931 16.7409C22.9856 15.5147 23 15.1237 23 12C23 8.87631 22.9856 8.48531 22.931 7.25769C22.8735 6.03438 22.6794 5.19775 22.3962 4.4675C22.1072 3.7002 21.6544 3.0051 21.0694 2.43056C20.4953 1.84503 19.8001 1.39218 19.0325 1.10375C18.2994 0.819125 17.4627 0.625062 16.2394 0.569C15.0118 0.514375 14.6223 0.5 11.4971 0.5H11.5014H11.5ZM10.4693 2.57288H11.5014C14.5719 2.57288 14.9356 2.58294 16.1474 2.639C17.2687 2.68931 17.8782 2.87762 18.2836 3.03431C18.8197 3.24275 19.2036 3.49288 19.6061 3.89538C20.0086 4.29787 20.2572 4.68025 20.4657 5.21788C20.6238 5.62181 20.8107 6.23131 20.861 7.35256C20.9171 8.56437 20.9286 8.92806 20.9286 11.9971C20.9286 15.0662 20.9171 15.4313 20.861 16.6431C20.8107 17.7644 20.6224 18.3724 20.4657 18.7778C20.2813 19.2771 19.987 19.7286 19.6046 20.0989C19.2021 20.5014 18.8197 20.7501 18.2821 20.9585C17.8796 21.1166 17.2701 21.3035 16.1474 21.3553C14.9356 21.4099 14.5719 21.4228 11.5014 21.4228C8.43094 21.4228 8.06581 21.4099 6.854 21.3553C5.73275 21.3035 5.12469 21.1166 4.71931 20.9585C4.21978 20.7744 3.76787 20.4806 3.39681 20.0989C3.01408 19.728 2.71935 19.2761 2.53431 18.7764C2.37762 18.3724 2.18931 17.7629 2.139 16.6417C2.08438 15.4299 2.07288 15.0662 2.07288 11.9942C2.07288 8.92375 2.08438 8.5615 2.139 7.34969C2.19075 6.22844 2.37762 5.61894 2.53575 5.21356C2.74419 4.67737 2.99431 4.29356 3.39681 3.89106C3.79931 3.48856 4.18169 3.23988 4.71931 3.03144C5.12469 2.87331 5.73275 2.68644 6.854 2.63469C7.91488 2.58581 8.326 2.57144 10.4693 2.57V2.57288ZM17.6396 4.48187C17.4583 4.48187 17.2789 4.51757 17.1115 4.58692C16.944 4.65627 16.7919 4.75792 16.6638 4.88607C16.5356 5.01421 16.434 5.16634 16.3646 5.33377C16.2953 5.5012 16.2596 5.68065 16.2596 5.86188C16.2596 6.0431 16.2953 6.22255 16.3646 6.38998C16.434 6.55741 16.5356 6.70954 16.6638 6.83768C16.7919 6.96583 16.944 7.06748 17.1115 7.13683C17.2789 7.20618 17.4583 7.24188 17.6396 7.24188C18.0056 7.24188 18.3566 7.09648 18.6154 6.83768C18.8742 6.57888 19.0196 6.22787 19.0196 5.86188C19.0196 5.49588 18.8742 5.14487 18.6154 4.88607C18.3566 4.62727 18.0056 4.48187 17.6396 4.48187ZM11.5014 6.09475C10.7181 6.08253 9.94016 6.22626 9.21291 6.51758C8.48565 6.8089 7.82362 7.24198 7.26534 7.79161C6.70707 8.34124 6.26371 8.99644 5.96108 9.71906C5.65846 10.4417 5.50261 11.2173 5.50261 12.0007C5.50261 12.7842 5.65846 13.5598 5.96108 14.2824C6.26371 15.005 6.70707 15.6602 7.26534 16.2098C7.82362 16.7595 8.48565 17.1925 9.21291 17.4839C9.94016 17.7752 10.7181 17.9189 11.5014 17.9067C13.0518 17.8825 14.5306 17.2496 15.6184 16.1447C16.7063 15.0397 17.316 13.5513 17.316 12.0007C17.316 10.4501 16.7063 8.96172 15.6184 7.85677C14.5306 6.75181 13.0518 6.11894 11.5014 6.09475ZM11.5014 8.16619C12.5182 8.16619 13.4934 8.57011 14.2124 9.28909C14.9313 10.0081 15.3352 10.9832 15.3352 12C15.3352 13.0168 14.9313 13.9919 14.2124 14.7109C13.4934 15.4299 12.5182 15.8338 11.5014 15.8338C10.4846 15.8338 9.5095 15.4299 8.79052 14.7109C8.07154 13.9919 7.66762 13.0168 7.66762 12C7.66762 10.9832 8.07154 10.0081 8.79052 9.28909C9.5095 8.57011 10.4846 8.16619 11.5014 8.16619Z" fill="#F1F0F5"/>
</svg>
